/* XPM */
static char * title_rifidi_32x32_xpm[] = {
"32 32 256 2",
"  	c #010F1A",
". 	c #01182A",
"+ 	c #071826",
"@ 	c #08172A",
"# 	c #091927",
"$ 	c #0A182B",
"% 	c #0A182B",
"& 	c #041A31",
"* 	c #051C2E",
"= 	c #061B32",
"- 	c #0C1A2D",
"; 	c #071C33",
"> 	c #0D1B2E",
", 	c #071E30",
"' 	c #081D34",
") 	c #0E1B2F",
"! 	c #091D35",
"~ 	c #02203C",
"{ 	c #0A1E36",
"] 	c #0A2033",
"^ 	c #0B1F37",
"/ 	c #05223F",
"( 	c #0C2038",
"_ 	c #0D2038",
": 	c #0C2234",
"< 	c #0E2139",
"[ 	c #12212F",
"} 	c #072441",
"| 	c #0F223A",
"1 	c #092541",
"2 	c #10233B",
"3 	c #0A2642",
"4 	c #11243C",
"5 	c #0B2643",
"6 	c #0A283F",
"7 	c #0C2744",
"8 	c #13253E",
"9 	c #0E2845",
"0 	c #0F2946",
"a 	c #082C4E",
"b 	c #162840",
"c 	c #112A47",
"d 	c #122B49",
"e 	c #0B2E50",
"f 	c #122D45",
"g 	c #1C2B3A",
"h 	c #0C2F51",
"i 	c #142D4A",
"j 	c #033556",
"k 	c #152E4B",
"l 	c #1E2D3C",
"m 	c #153048",
"n 	c #0F3153",
"o 	c #162F4C",
"p 	c #172F4D",
"q 	c #202E3D",
"r 	c #113255",
"s 	c #18304E",
"t 	c #1D3145",
"u 	c #223140",
"v 	c #1E3246",
"w 	c #233241",
"x 	c #153558",
"y 	c #0E3960",
"z 	c #213448",
"A 	c #173659",
"B 	c #1C364E",
"C 	c #263444",
"D 	c #19375A",
"E 	c #1A385B",
"F 	c #123B63",
"G 	c #24374B",
"H 	c #133E60",
"I 	c #25394D",
"J 	c #163D65",
"K 	c #1E3B5F",
"L 	c #273B4F",
"M 	c #1F3D60",
"N 	c #193F68",
"O 	c #293C50",
"P 	c #2A3D52",
"Q 	c #1B4169",
"R 	c #2E3D4D",
"S 	c #1C416A",
"T 	c #2B3E52",
"U 	c #144572",
"V 	c #2D4054",
"W 	c #29425B",
"X 	c #20456D",
"Y 	c #2F4257",
"Z 	c #21486B",
"` 	c #354353",
" .	c #2D455F",
"..	c #234770",
"+.	c #274961",
"@.	c #32455A",
"#.	c #1C4C74",
"$.	c #1E4B79",
"%.	c #33465B",
"&.	c #264973",
"*.	c #254B6E",
"=.	c #3D4753",
"-.	c #3A4859",
";.	c #284D71",
">.	c #2A4C76",
",.	c #235079",
"'.	c #244F7E",
").	c #2B4D77",
"!.	c #1C5286",
"~.	c #384B60",
"{.	c #3A4D63",
"].	c #3F4D5D",
"^.	c #27547C",
"/.	c #395468",
"(.	c #425161",
"_.	c #48525E",
":.	c #2E5A83",
"<.	c #455465",
"[.	c #485667",
"}.	c #2D608F",
"|.	c #4D5864",
"1.	c #455B6B",
"2.	c #4B596A",
"3.	c #36608A",
"4.	c #306291",
"5.	c #445F73",
"6.	c #4D5C6D",
"7.	c #495F6F",
"8.	c #3A648E",
"9.	c #505F70",
"0.	c #4A657A",
"a.	c #57626F",
"b.	c #3A6A9A",
"c.	c #386C95",
"d.	c #58636F",
"e.	c #556475",
"f.	c #516777",
"g.	c #5A6571",
"h.	c #3D6D9D",
"i.	c #3C6F98",
"j.	c #546B7B",
"k.	c #5D6874",
"l.	c #3E719A",
"m.	c #447094",
"n.	c #5C6B7D",
"o.	c #41749E",
"p.	c #557085",
"q.	c #487498",
"r.	c #4476A0",
"s.	c #636E7A",
"t.	c #4675A5",
"u.	c #4F7494",
"v.	c #606F81",
"w.	c #4678A2",
"x.	c #4C789C",
"y.	c #5F7A8F",
"z.	c #4D7FA9",
"A.	c #717880",
"B.	c #5081AB",
"C.	c #4985AE",
"D.	c #6E7A86",
"E.	c #707C88",
"F.	c #5384AE",
"G.	c #717D89",
"H.	c #6D808B",
"I.	c #737E8B",
"J.	c #6C8293",
"K.	c #5C87AC",
"L.	c #798189",
"M.	c #598DB1",
"N.	c #7C838B",
"O.	c #5C8DB8",
"P.	c #5C90B4",
"Q.	c #778A96",
"R.	c #5E92B7",
"S.	c #808890",
"T.	c #758C9C",
"U.	c #728DA3",
"V.	c #7A8D99",
"W.	c #7C8F9B",
"X.	c #6497BC",
"Y.	c #868E95",
"Z.	c #6699BE",
"`.	c #899199",
" +	c #8C949B",
".+	c #8498A3",
"++	c #8D959D",
"@+	c #9098A0",
"#+	c #6FA3C8",
"$+	c #69A6CA",
"%+	c #8D9CA3",
"&+	c #929AA2",
"*+	c #72A5CA",
"=+	c #74A7CC",
"-+	c #8EA1AD",
";+	c #7AA8C8",
">+	c #98A0A8",
",+	c #8DA4B5",
"'+	c #7DABCB",
")+	c #73B0D4",
"!+	c #9CA4AC",
"~+	c #9FA4A6",
"{+	c #95A8B4",
"]+	c #A0A5A8",
"^+	c #81AECE",
"/+	c #6EB6D8",
"(+	c #A2A7AA",
"_+	c #7DB4D2",
":+	c #A3A8AB",
"<+	c #99ACB8",
"[+	c #79B6DB",
"}+	c #A1AAB1",
"|+	c #A5AAAD",
"1+	c #80B7D6",
"2+	c #A7ACAF",
"3+	c #A7AFB7",
"4+	c #7DBEDB",
"5+	c #84BBDA",
"6+	c #ABB0B2",
"7+	c #93BCD7",
"8+	c #83C3E1",
"9+	c #B0B5B7",
"0+	c #8AC1E0",
"a+	c #B3B9BB",
"b+	c #87C8E5",
"c+	c #95C6E0",
"d+	c #B3BCC4",
"e+	c #90CBE3",
"f+	c #BABFC2",
"g+	c #98CAE4",
"h+	c #B3C3C9",
"i+	c #B1C5D1",
"j+	c #BAC2CA",
"k+	c #BDC2C4",
"l+	c #B5C5CB",
"m+	c #9CCDE7",
"n+	c #B3C7D3",
"o+	c #C2C7C9",
"p+	c #A1D2EC",
"q+	c #BCCCD3",
"r+	c #A7D4E8",
"s+	c #BFD0D6",
"t+	c #ACD9ED",
"u+	c #C3D3D9",
"v+	c #CED3D6",
"w+	c #C6D6DD",
"x+	c #CAD7D8",
"y+	c #C4D8E4",
"z+	c #CBDFEB",
"A+	c #DADFE2",
"B+	c #D7E4E5",
"C+	c #D5E6EC",
"D+	c #DFECED",
"E+	c #E6ECEE",
"F+	c #EDF2F5",
"G+	c #F4F9FC",
"; ; ; ; ; ; ; ; ; ; ; ; ; ; ; ; ; ; ; ; ; ; ; ; ; ; ; ; ; ; ; ; ",
"; ; ; ; ; ; ; ; ; ; ; ; ; ; ; ; ; ; ; ; ; ; ; ; ; ; ; ; ; ; ; ; ",
"; ; ; ; ; ; ; ; ; ; ; ; ; ; ; ; ; ; ; ; ; ; ; ; ; ; ; ; ; ; ; ; ",
"; ; ; ; ; ; ; ; ; ; ; ; ; ; ; ; ; ; ; ; ; ; ; ; ; ; ; ; ; ; ; ; ",
"; ; ; ; ; ; ; ; ; ; ; ; ; ; ; ' ^ ^ { ; ; ; ; ; ; ; ; ; ; ; ; ; ",
"; ; ; ; ; ; ; ; ; ; ; ; ; { c F ^.3.).D 5 ' ; ; ; ; ; ; ; ; ; ; ",
"; ; ; ; ; ; ; ; ; ; ; ; / y K.c+t+t+t+7+r.r { ; ; ' { ' ; ; ; ; ",
"; ; ; ; ; ; ; ; ^ 5 9 / K '+r+#+w.h.t._+r+P.r ^ a N >.Q e ^ ; ; ",
"; ; ; ; ; ; ; 5 &.K.X.^.M.m+r.b.*+7+#+h.K.p+8.A P.e+p+m+Z.S / ; ",
"; ; ; ; ; ; ~ X 8+5+;+:.m.w.h.c+Z.r.X.c+h.x.Z N ^+F.}.r.0+;+A ' ",
"{ @.@.@.Y G 6 A r.!.'.y 5 d l.x.U $.U 3.*.} 6 f M H Q Q 4.e+8./ ",
": %+F+G+v+A+A+T.y K.8+,.3 ~ c r c.b+i.j 3 / S.E+z+)./+F.$.[+B.3 ",
"; ; a+D+6 2 J.C+u.l.$+#.8 {.<+,+8.$+}.n / / ~ }+y+).)+C.'.4+r.} ",
"; ; 3+A+2 ~ B y+U.Z ;.r f x+Q.7 W ;.H h 6 ( ; -+w+j H M ^.[+Z ^ ",
"; ' !+v+: ; 1.q+p.y.l++.P v+J.~ 5.i+0.c %+o+3+3+o+ .i+J.i A 3 ; ",
"; ; %+o+@+%+a+V.6 0.l+` H.k+!+L ~.j+1.H.h+/.].k+l+Y h+n.~ ~ ; ; ",
"; ) `.a+6.%+9+B ) 9.d+P 1.a+I.' Y d+2.}+`.= = `.9+T 9+a.> ; ; ; ",
"; ; S.3+: -.6+L.{ 1.6+O t 6+k.~ ` 6+1.6+A.~ ; H.6+T 3+1.~ ; ; ; ",
"; ; L.}+6 ; S.(+L 1.(+O z }+d.~ V |+<.!+L.~ ' D.~+O |+|.' ; ; ; ",
"; = H.(+) = O }+L.|.}+I t ~+g.] ` ~+<.L.%+t b  +!+R :+-.G ; ; = ",
"; ) ]. +, . + A.N.q Y.u q }+d.# [ Y.=.w  +]+ +_.w , g - ) > = = ",
"; = . . @ # @ + # + # + g ~+d.. * # # > [ w : * , ) ; ; * = $ $ ",
"; ' ; - = = = ; ; ) < 6 B |+s.d o o B e o i b c c 6 2 / ' { ' ; ",
"; ; ; ; ; ; ^ 2 4 5 9 c  .~+p.E H J F M H y D r i c 9 2 6 _ ^ ^ ",
"; ; ' ; { { ' ~ 2 4 5 6 s.]+{.r j E E y D A r j a c 5 / 1 ~ ' { ",
"; ; ; ' ; ' ' ^ ~ / _ @   # 5 o o o e o k d c 5 8 1 2 < ' { ( ' ",
"; ; ; ; ; ' ' ; ' ^ ; - @ ( 1 3 3 6 5 3 1 8 4 } 2 / ^ ( ' ' ' ; ",
"; ; ; ; ; ; ; ' ; ' ' ; ) ' ^ ^ ~ ~ ^ ~ ~ ( ~ ' ~ ; { ' ' ; ; ; ",
"; ; ; ; ; ; ; ; ; ; ; { ' ' { ' ' { ' ' ' ' { ; ; ; ; ; ; ; ; ; ",
"; ; ; ; ; ; ; ; ; ; ; ; ; ; ; ; ; ; ; ; ; ; ; ; ; ; ; ; ; ; ; ; ",
"; ; ; ; ; ; ; ; ; ; ; ; ; ; ; ; ; ; ; ; ; ; ; ; ; ; ; ; ; ; ; ; ",
"; ; ; ; ; ; ; ; ; ; ; ; ; ; ; ; ; ; ; ; ; ; ; ; ; ; ; ; ; ; ; ; "};
